<svg width="138" height="68" viewBox="0 0 138 68" fill="none" xmlns="http://www.w3.org/2000/svg">
<circle cx="23.5" cy="6.5" r="6.5" fill="#E8E5E1"/>
<circle cx="23.5" cy="24.5" r="6.5" fill="#E8E5E1"/>
<circle cx="23.5" cy="42.5" r="6.5" fill="#E8E5E1"/>
<circle cx="23.5" cy="60.5" r="6.5" fill="#E8E5E1"/>
<circle cx="6.5" cy="6.5" r="6.5" fill="#E8E5E1"/>
<circle cx="6.5" cy="24.5" r="6.5" fill="#E8E5E1"/>
<circle cx="6.5" cy="60.5" r="6.5" fill="#E8E5E1"/>
<circle cx="41" cy="7" r="7" fill="#E8E5E1"/>
<circle cx="41" cy="43" r="7" fill="#E8E5E1"/>
<circle cx="59" cy="7" r="7" fill="#E8E5E1"/>
<circle cx="59" cy="25" r="7" fill="#E8E5E1"/>
<circle cx="59" cy="43" r="7" fill="#E8E5E1"/>
<circle cx="59" cy="61" r="7" fill="#E8E5E1"/>
<circle cx="77" cy="7" r="7" fill="#E8E5E1"/>
<circle cx="77" cy="25" r="7" fill="#E8E5E1"/>
<circle cx="77" cy="61" r="7" fill="#E8E5E1"/>
<circle cx="113" cy="7" r="7" fill="#E8E5E1"/>
<circle cx="113" cy="25" r="7" fill="#E8E5E1"/>
<circle cx="113" cy="43" r="7" fill="#E8E5E1"/>
<circle cx="95" cy="25" r="7" fill="#E8E5E1"/>
<circle cx="95" cy="43" r="7" fill="#E8E5E1"/>
<circle cx="95" cy="61" r="7" fill="#E8E5E1"/>
<circle cx="131" cy="7" r="7" fill="#E8E5E1"/>
<circle cx="131" cy="43" r="7" fill="#E8E5E1"/>
<circle cx="131" cy="61" r="7" fill="#E8E5E1"/>
</svg>
