<svg width="40" height="40" viewBox="0 0 40 40" fill="none" xmlns="http://www.w3.org/2000/svg">
<path d="M6.5 27C10.0899 27 13 29.9101 13 33.5C13 37.0899 10.0899 40 6.5 40C2.91015 40 0 37.0899 0 33.5C0 29.9101 2.91015 27 6.5 27ZM33.5 27C37.0899 27 40 29.9101 40 33.5C40 37.0899 37.0899 40 33.5 40C29.9101 40 27 37.0899 27 33.5C27 29.9101 29.9101 27 33.5 27ZM20 13C23.866 13 27 16.134 27 20C27 23.866 23.866 27 20 27C16.134 27 13 23.866 13 20C13 16.134 16.134 13 20 13ZM6.5 0C10.0899 0 13 2.91015 13 6.5C13 10.0899 10.0899 13 6.5 13C2.91015 13 0 10.0899 0 6.5C0 2.91015 2.91015 0 6.5 0ZM33.5 0C37.0899 0 40 2.91015 40 6.5C40 10.0899 37.0899 13 33.5 13C29.9101 13 27 10.0899 27 6.5C27 2.91015 29.9101 0 33.5 0Z" fill="#303030"/>
</svg>
