<svg width="352" height="30" viewBox="0 0 352 30" fill="none" xmlns="http://www.w3.org/2000/svg">
<path d="M5.41504 30H0V0H5.41504V30Z" fill="#8C8A8A"/>
<path d="M13.5381 30H10.8311V0H13.5381V30Z" fill="#8C8A8A"/>
<path d="M27.0771 30H18.9541V0H27.0771V30Z" fill="#8C8A8A"/>
<path d="M32.4922 30H29.7842V0H32.4922V30Z" fill="#8C8A8A"/>
<path d="M46.0312 30H37.9082V0H46.0312V30Z" fill="#8C8A8A"/>
<path d="M54.1533 30H48.7383V0H54.1533V30Z" fill="#8C8A8A"/>
<path d="M64.9844 30H59.5693V0H64.9844V30Z" fill="#8C8A8A"/>
<path d="M75.8164 30H67.6934V0H75.8164V30Z" fill="#8C8A8A"/>
<path d="M83.9395 30H81.2314V0H83.9395V30Z" fill="#8C8A8A"/>
<path d="M94.7686 30H89.3535V0H94.7686V30Z" fill="#8C8A8A"/>
<path d="M105.6 30H97.4766V0H105.6V30Z" fill="#8C8A8A"/>
<path d="M113.724 30H111.017V0H113.724V30Z" fill="#8C8A8A"/>
<path d="M124.554 30H119.139V0H124.554V30Z" fill="#8C8A8A"/>
<path d="M132.678 30H129.97V0H132.678V30Z" fill="#8C8A8A"/>
<path d="M143.509 30H135.386V0H143.509V30Z" fill="#8C8A8A"/>
<path d="M154.338 30H148.923V0H154.338V30Z" fill="#8C8A8A"/>
<path d="M162.462 30H159.755V0H162.462V30Z" fill="#8C8A8A"/>
<path d="M173.293 30H165.17V0H173.293V30Z" fill="#8C8A8A"/>
<path d="M184.124 30H178.709V0H184.124V30Z" fill="#8C8A8A"/>
<path d="M192.246 30H189.539V0H192.246V30Z" fill="#8C8A8A"/>
<path d="M203.077 30H194.954V0H203.077V30Z" fill="#8C8A8A"/>
<path d="M211.2 30H208.493V0H211.2V30Z" fill="#8C8A8A"/>
<path d="M224.738 30H216.615V0H224.738V30Z" fill="#8C8A8A"/>
<path d="M232.862 30H227.447V0H232.862V30Z" fill="#8C8A8A"/>
<path d="M243.692 30H238.277V0H243.692V30Z" fill="#8C8A8A"/>
<path d="M257.231 30H249.108V0H257.231V30Z" fill="#8C8A8A"/>
<path d="M262.646 30H259.938V0H262.646V30Z" fill="#8C8A8A"/>
<path d="M273.478 30H268.062V0H273.478V30Z" fill="#8C8A8A"/>
<path d="M284.308 30H276.185V0H284.308V30Z" fill="#8C8A8A"/>
<path d="M292.431 30H289.724V0H292.431V30Z" fill="#8C8A8A"/>
<path d="M303.262 30H297.847V0H303.262V30Z" fill="#8C8A8A"/>
<path d="M311.385 30H308.678V0H311.385V30Z" fill="#8C8A8A"/>
<path d="M322.216 30H314.093V0H322.216V30Z" fill="#8C8A8A"/>
<path d="M333.047 30H327.632V0H333.047V30Z" fill="#8C8A8A"/>
<path d="M343.878 30H335.755V0H343.878V30Z" fill="#8C8A8A"/>
<path d="M352 30H349.293V0H352V30Z" fill="#8C8A8A"/>
</svg>
