<svg width="280" height="32" viewBox="0 0 280 32" fill="none" xmlns="http://www.w3.org/2000/svg">
<rect width="6.4" height="32" fill="#E8E5E1"/>
<rect x="64" width="8" height="32" fill="#E8E5E1"/>
<rect x="78.4" width="8" height="32" fill="#E8E5E1"/>
<rect x="118.4" width="6.4" height="32" fill="#E8E5E1"/>
<rect x="158.4" width="6.4" height="32" fill="#E8E5E1"/>
<rect x="196.8" width="8" height="32" fill="#E8E5E1"/>
<rect x="236.8" width="6.4" height="32" fill="#E8E5E1"/>
<rect x="25.6" width="9.6" height="32" fill="#E8E5E1"/>
<rect x="49.6" width="11.2" height="32" fill="#E8E5E1"/>
<rect x="89.6" width="11.2" height="32" fill="#E8E5E1"/>
<rect x="129.6" width="9.6" height="32" fill="#E8E5E1"/>
<rect x="179.2" width="11.2" height="32" fill="#E8E5E1"/>
<rect x="219.2" width="9.6" height="32" fill="#E8E5E1"/>
<rect x="257.6" width="11.2" height="32" fill="#E8E5E1"/>
<rect x="14.4" width="3.2" height="32" fill="#E8E5E1"/>
<rect x="40" width="3.2" height="32" fill="#E8E5E1"/>
<rect x="107.2" width="3.2" height="32" fill="#E8E5E1"/>
<rect x="147.2" width="3.2" height="32" fill="#E8E5E1"/>
<rect x="172.8" width="3.2" height="32" fill="#E8E5E1"/>
<rect x="211.2" width="3.2" height="32" fill="#E8E5E1"/>
<rect x="251.2" width="3.2" height="32" fill="#E8E5E1"/>
<rect x="276.8" width="3.2" height="32" fill="#E8E5E1"/>
</svg>
