<svg width="285" height="114" viewBox="0 0 285 114" fill="none" xmlns="http://www.w3.org/2000/svg">
<path d="M114 114H95V95H114V114ZM152 114H133V95H152V114ZM228 114H209V95H228V114ZM95 95H76V76H95V95ZM171 95H152V76H171V95ZM209 95H190V76H209V95ZM38 76H19V57H38V76ZM76 76H57V57H76V76ZM114 76H95V57H114V76ZM152 76H133V57H152V76ZM190 76H171V57H190V76ZM247 38V57H228V76H209V57H190V38H247ZM266 76H247V57H266V76ZM19 57H0V38H19V57ZM57 57H38V38H57V57ZM133 57H114V38H133V57ZM285 57H266V38H285V57ZM38 38H19V19H38V38ZM114 38H95V19H114V38ZM171 19H190V38H133V19H152V0H171V19ZM285 19H266V38H247V19H228V0H285V19ZM19 19H0V0H19V19ZM95 19H38V0H95V19ZM133 19H114V0H133V19ZM209 19H190V0H209V19Z" fill="#E8E5E1"/>
</svg>
